<?xml version="1.0" encoding="UTF-8" standalone="no"?>
<!-- Uploaded to: SVG Repo, www.svgrepo.com, Transformed by: SVG Repo Mixer Tools -->

<svg
   fill="#000000"
   version="1.1"
   id="Capa_1"
   width="800px"
   height="800px"
   viewBox="0 0 570.15 570.15"
   xml:space="preserve"
   transform="rotate(0)matrix(-1, 0, 0, 1, 0, 0)"
   stroke="#000000"
   stroke-width="0.005701520000000001"
   sodipodi:docname="running-man-silhouette2.svg"
   inkscape:version="1.3.2 (091e20e, 2023-11-25, custom)"
   xmlns:inkscape="http://www.inkscape.org/namespaces/inkscape"
   xmlns:sodipodi="http://sodipodi.sourceforge.net/DTD/sodipodi-0.dtd"
   xmlns="http://www.w3.org/2000/svg"
   xmlns:svg="http://www.w3.org/2000/svg"><defs
   id="defs2" /><sodipodi:namedview
   id="namedview2"
   pagecolor="#ffffff"
   bordercolor="#000000"
   borderopacity="0.25"
   inkscape:showpageshadow="2"
   inkscape:pageopacity="0.0"
   inkscape:pagecheckerboard="0"
   inkscape:deskcolor="#d1d1d1"
   showguides="false"
   inkscape:zoom="1.01625"
   inkscape:cx="658.79459"
   inkscape:cy="697.17097"
   inkscape:window-width="1920"
   inkscape:window-height="1009"
   inkscape:window-x="-8"
   inkscape:window-y="-8"
   inkscape:window-maximized="1"
   inkscape:current-layer="Capa_1" />

<g
   id="SVGRepo_bgCarrier"
   stroke-width="0" />

<g
   id="SVGRepo_tracerCarrier"
   stroke-linecap="round"
   stroke-linejoin="round"
   stroke="#CCCCCC"
   stroke-width="6.841824" />

<g
   id="SVGRepo_iconCarrier"> <g
   id="g2"> <g
   id="g1"> <circle
   cx="228.625"
   cy="61.794"
   r="61.794"
   id="circle1" /> <polygon
   points="206.608,157.679 142.324,207.685 55.628,133.202 25.774,167.951 140.797,266.771 227.217,199.958 290.397,329.553 201.896,395.004 193.364,567.129 254.369,570.152 261.465,426.916 333.747,373.463 338.231,370.312 356.802,481.08 539.757,494.967 544.378,434.061 409.132,423.797 394.118,330.982 332.563,160.874 421.815,160.874 475.448,282.181 517.345,263.659 451.653,115.062 315.987,115.062 "
   id="polygon1" /> </g> </g> </g>

<path
   style="fill:#ff0000;fill-rule:evenodd;stroke:#d40000;stroke-width:7.126875;stroke-linecap:butt;stroke-linejoin:miter;stroke-opacity:1;fill-opacity:1;stroke-dasharray:7.126875, 21.380625;stroke-dashoffset:0"
   d="M 284.72436,0.70129151 V 569.09807"
   id="path10"
   inkscape:connector-type="polyline"
   inkscape:connector-curvature="0" /></svg>
