<!DOCTYPE svg PUBLIC "-//W3C//DTD SVG 1.1//EN" "http://www.w3.org/Graphics/SVG/1.1/DTD/svg11.dtd">
<!-- Uploaded to: SVG Repo, www.svgrepo.com, Transformed by: SVG Repo Mixer Tools -->
<svg fill="#000000" version="1.1" id="Capa_1" xmlns="http://www.w3.org/2000/svg" xmlns:xlink="http://www.w3.org/1999/xlink" width="800px" height="800px" viewBox="0 0 570.15 570.15" xml:space="preserve" transform="rotate(0)matrix(-1, 0, 0, 1, 0, 0)" stroke="#000000" stroke-width="0.005701520000000001">
<g id="SVGRepo_bgCarrier" stroke-width="0"/>
<g id="SVGRepo_tracerCarrier" stroke-linecap="round" stroke-linejoin="round" stroke="#CCCCCC" stroke-width="6.841824"/>
<g id="SVGRepo_iconCarrier"> <g> <g> <circle cx="228.625" cy="61.794" r="61.794"/> <polygon points="206.608,157.679 142.324,207.685 55.628,133.202 25.774,167.951 140.797,266.771 227.217,199.958 290.397,329.553 201.896,395.004 193.364,567.129 254.369,570.152 261.465,426.916 333.747,373.463 338.231,370.312 356.802,481.08 539.757,494.967 544.378,434.061 409.132,423.797 394.118,330.982 332.563,160.874 421.815,160.874 475.448,282.181 517.345,263.659 451.653,115.062 315.987,115.062 "/> </g> </g> </g>
</svg>